<svg width="25" height="24" viewBox="0 0 25 24" fill="none" xmlns="http://www.w3.org/2000/svg">
<rect width="24" height="24" transform="translate(0.695312)" fill="white"/>
<path fill-rule="evenodd" clip-rule="evenodd" d="M23.7353 12.2615C23.7353 11.446 23.6621 10.6619 23.5262 9.90918H12.6953V14.3576H18.8844C18.6178 15.7951 17.8076 17.013 16.5896 17.8285V20.714H20.3062C22.4808 18.7119 23.7353 15.7637 23.7353 12.2615Z" fill="#4285F4"/>
<path fill-rule="evenodd" clip-rule="evenodd" d="M12.6948 23.4998C15.7998 23.4998 18.403 22.47 20.3057 20.7137L16.5891 17.8282C15.5593 18.5182 14.2421 18.9259 12.6948 18.9259C9.69956 18.9259 7.16433 16.903 6.26001 14.1848H2.41797V17.1644C4.31024 20.9228 8.19933 23.4998 12.6948 23.4998Z" fill="#34A853"/>
<path fill-rule="evenodd" clip-rule="evenodd" d="M6.26054 14.185C6.03054 13.495 5.89986 12.7579 5.89986 12C5.89986 11.242 6.03054 10.505 6.26054 9.81499V6.83545H2.41849C1.63963 8.38795 1.19531 10.1443 1.19531 12C1.19531 13.8557 1.63963 15.612 2.41849 17.1645L6.26054 14.185Z" fill="#FBBC05"/>
<path fill-rule="evenodd" clip-rule="evenodd" d="M12.6948 5.07386C14.3832 5.07386 15.8991 5.65409 17.0909 6.79364L20.3893 3.49523C18.3977 1.63955 15.7946 0.5 12.6948 0.5C8.19933 0.5 4.31024 3.07705 2.41797 6.83545L6.26001 9.815C7.16433 7.09682 9.69956 5.07386 12.6948 5.07386Z" fill="#EA4335"/>
</svg>
